<svg width="211" height="223" viewBox="0 0 211 223" fill="none" xmlns="http://www.w3.org/2000/svg">
<path d="M41.2247 158.014L0 222.092L86.2256 127.992C79.7434 127.101 76.6027 123.899 75.3296 120.184C72.819 112.856 78.699 105.854 84.1417 100.508L159.67 26.3138L45.0402 104.625C50.098 110.186 52.3381 117.086 53.0426 123.64C54.3818 136.096 47.9312 147.589 41.2247 158.014Z" fill="white"/>
<path d="M164.743 102.941L38.5488 206.093L109.355 129.045C104.067 128.552 100.883 126.633 99.0913 124.112C93.4799 116.219 102.15 106.42 109.03 99.6933L211 0L140.034 91.3238C138.926 92.7493 137.51 94.984 137.736 96.8C138.24 100.844 142.785 101.204 146.71 101.514L164.743 102.941Z" fill="white"/>
</svg>
